<?xml version="1.0" standalone="no"?>
<!DOCTYPE svg PUBLIC "-//W3C//DTD SVG 20010904//EN"
 "http://www.w3.org/TR/2001/REC-SVG-20010904/DTD/svg10.dtd">
<svg version="1.0" xmlns="http://www.w3.org/2000/svg"
 width="2000.000000pt" height="2000.000000pt" viewBox="0 0 2000.000000 2000.000000"
 preserveAspectRatio="xMidYMid meet">
<metadata>
Created by potrace 1.11, written by Peter Selinger 2001-2013
</metadata>
<g transform="translate(0.000000,2000.000000) scale(0.100000,-0.100000)"
fill="#000000" stroke="none">
<path d="M9330 19180 c-51 -14 -95 -44 -147 -96 -29 -30 -53 -59 -53 -64 0 -4
-6 -15 -14 -23 -18 -17 -69 -120 -85 -169 -7 -21 -17 -38 -23 -38 -6 0 -9 -3
-5 -6 3 -4 -5 -36 -19 -73 -14 -36 -27 -73 -29 -81 -2 -8 -4 -16 -5 -17 -2 -2
-4 -7 -5 -13 -1 -5 -4 -12 -5 -15 -1 -3 -3 -8 -4 -12 -2 -13 -28 -97 -36 -118
-21 -54 -49 -159 -44 -166 3 -5 0 -9 -5 -9 -6 0 -11 -10 -11 -23 0 -13 -3 -27
-7 -31 -4 -3 -8 -13 -9 -21 -2 -14 -40 -136 -51 -165 -4 -8 -7 -18 -8 -22 -2
-5 -4 -10 -5 -13 -1 -3 -3 -8 -5 -12 -1 -5 -7 -21 -13 -36 -7 -16 -12 -32 -12
-36 0 -4 -6 -21 -14 -37 -8 -16 -22 -47 -32 -69 -10 -22 -22 -43 -27 -46 -5
-3 -9 -9 -8 -12 1 -16 -22 -67 -30 -67 -5 0 -9 -9 -9 -19 0 -11 -3 -21 -8 -23
-4 -1 -23 -29 -42 -60 -19 -32 -38 -58 -42 -58 -4 0 -8 -7 -8 -15 0 -8 -4 -15
-8 -15 -4 0 -15 -12 -24 -27 -18 -30 -57 -77 -129 -154 -25 -27 -44 -49 -43
-49 6 0 -135 -136 -211 -205 -37 -33 -82 -75 -101 -92 -18 -18 -36 -33 -39
-33 -4 0 -19 -12 -35 -27 -15 -16 -42 -39 -60 -53 -18 -14 -45 -37 -60 -52
-16 -16 -32 -28 -36 -28 -4 0 -20 -13 -35 -30 -16 -16 -29 -27 -29 -23 0 4 -9
-2 -20 -13 -10 -10 -33 -30 -51 -44 -17 -14 -43 -35 -57 -48 -14 -12 -38 -33
-54 -45 -16 -12 -41 -32 -56 -45 -15 -13 -40 -33 -55 -45 -16 -12 -44 -37 -63
-54 -19 -18 -34 -30 -34 -27 0 2 -13 -8 -28 -23 -50 -49 -204 -188 -213 -191
-5 -2 -9 -11 -9 -20 0 -8 -3 -13 -6 -10 -6 7 -116 -102 -239 -237 -44 -49 -88
-97 -97 -107 -10 -10 -18 -23 -18 -29 0 -5 -4 -7 -10 -4 -5 3 -10 2 -10 -4 0
-6 -10 -21 -22 -34 -45 -46 -88 -99 -88 -107 0 -5 -6 -13 -13 -17 -7 -4 -28
-28 -47 -53 -19 -24 -42 -52 -50 -62 -31 -35 -40 -47 -40 -57 0 -5 -10 -17
-22 -25 -12 -9 -19 -16 -14 -16 5 0 -3 -12 -17 -26 -15 -15 -24 -30 -21 -35 3
-5 -1 -9 -8 -9 -7 0 -25 -20 -40 -43 -15 -23 -33 -51 -40 -62 -7 -11 -22 -28
-32 -37 -10 -10 -16 -18 -12 -18 4 0 2 -6 -3 -12 -46 -56 -62 -78 -57 -78 3 0
-3 -10 -14 -22 -39 -45 -50 -58 -50 -63 0 -3 -16 -27 -35 -54 -19 -26 -35 -53
-35 -59 0 -6 -4 -12 -8 -14 -9 -3 -69 -89 -71 -100 0 -5 -10 -17 -21 -28 -12
-12 -18 -26 -14 -33 4 -7 4 -9 -1 -5 -8 8 -41 -36 -42 -56 -1 -5 -8 -13 -17
-18 -9 -5 -16 -16 -16 -23 0 -8 -4 -15 -10 -15 -5 0 -10 -5 -10 -11 0 -6 -16
-33 -35 -59 -19 -26 -35 -53 -35 -59 0 -6 -4 -11 -8 -11 -5 0 -16 -18 -26 -40
-10 -22 -21 -40 -26 -40 -5 0 -14 -16 -20 -35 -6 -19 -15 -35 -19 -35 -4 0
-16 -18 -27 -40 -10 -22 -22 -40 -26 -40 -3 0 -11 -12 -17 -27 -6 -16 -20 -41
-31 -58 -10 -16 -27 -46 -37 -65 -9 -19 -22 -38 -27 -42 -7 -5 -7 -8 -1 -8 6
0 6 -3 0 -8 -6 -4 -22 -29 -35 -57 -14 -27 -31 -56 -38 -63 -7 -8 -10 -18 -7
-23 4 -5 2 -9 -4 -9 -5 0 -15 -16 -22 -35 -7 -19 -17 -35 -21 -35 -4 0 -8 -8
-8 -17 0 -9 -6 -24 -13 -32 -7 -9 -24 -41 -37 -71 -14 -30 -29 -58 -35 -62 -5
-4 -7 -8 -2 -8 4 0 0 -11 -9 -25 -9 -14 -12 -25 -8 -25 5 0 4 -4 -2 -8 -9 -5
-37 -59 -49 -92 -1 -3 -8 -18 -15 -35 -7 -16 -14 -32 -15 -35 -1 -3 -14 -32
-29 -65 -15 -33 -29 -64 -30 -70 -1 -5 -7 -20 -14 -31 -6 -12 -8 -24 -5 -28 3
-3 2 -6 -4 -6 -6 0 -13 -10 -17 -23 -3 -13 -13 -41 -23 -63 -10 -21 -18 -43
-19 -49 0 -5 -8 -26 -16 -45 -25 -58 -31 -74 -35 -95 -2 -10 -8 -22 -15 -26
-6 -4 -7 -12 -4 -18 4 -6 3 -11 -2 -11 -9 0 -26 -55 -23 -72 0 -5 -3 -8 -8 -8
-5 0 -11 -12 -14 -27 -3 -16 -10 -39 -15 -53 -5 -14 -9 -27 -9 -30 0 -3 -10
-24 -21 -46 -12 -23 -18 -44 -15 -48 3 -3 2 -11 -4 -18 -5 -7 -22 -51 -38 -98
-15 -47 -31 -89 -35 -95 -4 -5 -6 -18 -5 -27 2 -10 0 -18 -4 -18 -7 0 -35 -94
-29 -96 2 0 -3 -8 -11 -17 -7 -10 -10 -17 -6 -17 4 0 2 -7 -5 -15 -7 -8 -9
-15 -5 -15 4 0 2 -7 -5 -15 -7 -8 -9 -15 -5 -15 4 0 3 -6 -3 -12 -5 -7 -13
-29 -17 -48 -4 -19 -10 -39 -13 -45 -7 -11 -12 -32 -14 -52 -1 -7 -5 -13 -10
-13 -4 0 -7 -3 -6 -7 3 -13 -14 -77 -23 -89 -5 -6 -10 -23 -11 -38 -1 -14 -7
-26 -12 -26 -5 0 -7 -3 -3 -6 3 -4 0 -22 -8 -40 -8 -19 -12 -34 -9 -34 2 0 -2
-16 -10 -35 -8 -19 -13 -35 -11 -35 3 0 -4 -22 -15 -50 -11 -27 -18 -50 -15
-50 2 0 -2 -19 -11 -42 -8 -22 -12 -43 -9 -46 3 -3 1 -10 -4 -16 -6 -7 -12
-24 -15 -39 -2 -15 -7 -30 -10 -35 -3 -5 -7 -19 -9 -33 -3 -13 -12 -51 -21
-85 -8 -33 -17 -69 -19 -80 -2 -10 -8 -28 -12 -38 -5 -10 -9 -31 -11 -45 -1
-14 -3 -28 -5 -31 -1 -3 -3 -9 -4 -15 -2 -5 -4 -13 -5 -17 -1 -5 -4 -12 -5
-18 -1 -5 -3 -11 -5 -12 -2 -3 -6 -22 -13 -63 -3 -16 -8 -37 -11 -45 -3 -8 -7
-28 -10 -45 -3 -16 -7 -41 -11 -55 -3 -14 -7 -36 -10 -50 -3 -14 -7 -36 -10
-50 -3 -14 -7 -36 -10 -50 -5 -27 -12 -60 -20 -100 -2 -14 -7 -41 -11 -60 -3
-19 -7 -39 -8 -45 -2 -5 -6 -32 -10 -60 -4 -27 -10 -61 -12 -75 -2 -14 -6 -45
-10 -70 -3 -25 -8 -53 -10 -63 -5 -16 -8 -42 -19 -137 -2 -19 -6 -57 -10 -85
-3 -27 -7 -64 -9 -82 -1 -18 -5 -35 -9 -39 -3 -4 -2 -15 4 -25 5 -11 6 -19 1
-19 -4 0 -8 -10 -9 -22 0 -13 -3 -63 -7 -113 -15 -201 -17 -245 -21 -367 -2
-70 -6 -132 -10 -138 -3 -5 -2 -10 3 -10 10 0 9 -30 -2 -48 -4 -6 -3 -12 2
-12 6 0 7 -14 2 -35 -4 -19 -4 -35 0 -35 4 0 5 -15 1 -33 -5 -18 -6 -41 -4
-52 9 -48 8 -75 -1 -75 -7 0 -8 -3 -1 -8 6 -4 11 -54 11 -112 2 -157 11 -296
18 -309 4 -6 1 -11 -6 -11 -8 0 -9 -3 -3 -8 6 -4 11 -23 11 -42 1 -19 3 -64 5
-100 l4 -65 -80 -2 c-44 -2 -84 -3 -90 -3 -53 -3 -434 15 -585 26 -188 15
-495 9 -551 -10 -8 -3 -27 -7 -44 -10 -16 -2 -55 -12 -85 -20 -30 -9 -63 -18
-72 -20 -10 -3 -33 -12 -53 -20 -19 -9 -51 -23 -70 -31 -69 -29 -110 -49 -115
-54 -3 -4 -30 -19 -60 -35 -30 -16 -57 -32 -60 -36 -3 -3 -21 -16 -40 -28 -20
-11 -46 -29 -57 -39 -12 -10 -37 -29 -55 -43 -18 -14 -60 -51 -93 -83 -33 -33
-61 -58 -63 -58 -1 1 -17 -16 -35 -36 -17 -21 -44 -51 -59 -66 -16 -16 -28
-32 -28 -35 0 -4 -14 -22 -31 -39 -16 -18 -28 -33 -25 -33 3 0 -9 -20 -27 -44
-50 -67 -62 -87 -60 -97 2 -5 0 -9 -5 -9 -4 0 -19 -21 -32 -47 -14 -27 -28
-50 -33 -51 -4 -2 -5 -8 -1 -13 3 -5 0 -9 -6 -9 -6 0 -8 -5 -5 -10 3 -6 2 -10
-3 -10 -5 0 -13 -10 -17 -22 -4 -13 -8 -25 -9 -28 -1 -3 -12 -24 -24 -46 -11
-23 -18 -44 -15 -48 4 -3 1 -6 -5 -6 -7 0 -12 -6 -12 -12 -1 -7 -9 -31 -20
-53 -11 -22 -19 -43 -20 -47 0 -4 -5 -19 -12 -35 -6 -15 -12 -31 -12 -35 -1
-3 -4 -10 -9 -14 -4 -4 -7 -18 -7 -31 0 -13 -5 -23 -11 -23 -5 0 -8 -4 -4 -10
3 -5 1 -17 -4 -27 -9 -15 -25 -71 -32 -108 -1 -5 -8 -24 -15 -41 -7 -17 -10
-34 -7 -38 4 -3 1 -6 -6 -6 -7 0 -9 -5 -6 -10 4 -6 2 -16 -3 -23 -5 -7 -8 -22
-7 -34 1 -13 -2 -23 -7 -23 -4 0 -7 -3 -6 -7 1 -5 -6 -42 -15 -83 -9 -41 -19
-86 -21 -100 -3 -14 -5 -25 -6 -25 -1 0 -3 -9 -5 -20 -2 -11 -9 -47 -15 -80
-6 -33 -13 -69 -15 -80 -2 -11 -4 -20 -5 -20 -1 0 -3 -13 -5 -30 -1 -16 -6
-50 -9 -75 -8 -54 -16 -109 -21 -149 -2 -17 -6 -35 -9 -40 -4 -5 -2 -12 4 -16
6 -4 7 -12 3 -18 -9 -14 -15 -71 -17 -154 0 -35 -3 -63 -6 -63 -19 0 -13 -720
6 -751 3 -5 0 -9 -6 -9 -6 0 -8 -5 -4 -12 4 -6 9 -26 10 -42 4 -51 12 -120 30
-256 3 -19 6 -48 8 -65 2 -16 7 -42 10 -57 7 -31 12 -58 26 -133 5 -27 12 -61
16 -75 3 -14 7 -34 9 -45 2 -11 4 -20 5 -20 1 0 4 -13 6 -30 2 -16 11 -51 19
-77 8 -26 16 -59 17 -73 1 -14 5 -25 9 -25 4 0 9 -15 13 -32 8 -43 10 -51 19
-65 5 -7 6 -17 2 -22 -3 -5 -1 -12 5 -16 5 -3 10 -14 10 -23 0 -9 6 -28 13
-43 8 -14 13 -33 11 -42 -1 -9 1 -17 5 -17 4 0 13 -21 20 -47 8 -27 18 -54 24
-61 5 -6 6 -12 3 -12 -4 0 -1 -12 7 -27 8 -16 23 -48 33 -73 9 -25 29 -70 42
-100 14 -30 25 -61 25 -67 0 -7 4 -13 9 -13 4 0 8 -5 8 -12 0 -16 112 -241
125 -250 5 -4 6 -8 2 -8 -5 0 1 -14 13 -30 12 -17 18 -30 13 -30 -4 0 0 -5 9
-11 10 -5 18 -15 18 -20 0 -6 27 -53 60 -106 33 -52 60 -97 60 -100 0 -3 9
-14 21 -24 11 -9 21 -21 21 -26 1 -9 29 -55 38 -63 3 -3 19 -23 36 -45 16 -22
34 -46 39 -52 6 -7 19 -24 30 -39 11 -14 28 -35 38 -45 9 -11 17 -21 17 -24 0
-3 14 -18 31 -35 18 -16 28 -30 23 -30 -5 0 5 -9 21 -20 17 -11 26 -20 22 -20
-9 0 210 -217 265 -262 18 -16 44 -37 58 -49 14 -11 35 -29 48 -40 12 -10 25
-19 27 -19 3 0 15 -9 27 -20 12 -11 34 -25 49 -32 15 -7 25 -16 23 -20 -3 -4
0 -8 6 -8 6 0 27 -12 46 -26 19 -15 34 -23 34 -18 0 4 7 -1 15 -12 8 -10 15
-14 15 -9 0 6 4 5 8 -2 13 -21 335 -180 383 -189 8 -2 28 -10 44 -18 16 -8 32
-13 37 -10 4 3 8 1 8 -3 0 -5 12 -10 26 -11 15 -1 32 -6 38 -11 6 -4 22 -11
36 -14 14 -3 43 -11 65 -17 80 -22 102 -27 137 -35 28 -6 65 -14 98 -21 14 -3
36 -7 50 -9 14 -2 36 -7 50 -10 33 -8 118 -18 153 -19 15 -1 27 -3 27 -6 0 -3
15 -5 33 -5 17 0 36 -1 41 -4 12 -5 93 -13 158 -15 27 0 48 -3 48 -6 0 -5 118
-11 277 -13 51 -1 93 -6 93 -10 0 -4 9 -3 20 3 11 6 20 7 20 3 0 -4 128 -8
285 -8 157 0 285 3 285 8 0 4 8 4 17 0 16 -7 47 -9 63 -4 3 1 46 4 95 6 111 5
340 22 340 25 0 1 18 3 40 5 38 2 129 13 164 20 55 10 198 29 209 28 6 0 12 3
12 9 0 5 4 7 8 4 5 -3 37 2 72 10 34 8 65 12 68 10 2 -3 17 1 33 10 16 8 31
14 34 13 8 -1 100 16 110 21 6 3 3 2 78 20 32 7 60 17 63 22 3 4 14 8 24 8 10
0 31 5 47 12 15 6 35 12 43 12 8 1 20 4 25 7 17 10 120 43 128 41 4 -1 7 2 7
6 0 8 89 38 103 34 4 -1 7 2 7 7 0 5 10 13 23 16 22 7 91 38 183 81 28 13 57
24 64 24 7 0 10 3 7 6 -3 4 22 20 56 37 34 16 64 34 65 39 2 4 7 6 12 3 5 -3
14 1 22 8 11 11 57 40 173 110 11 7 34 23 51 37 17 14 42 32 55 40 13 8 36 27
51 41 15 15 29 24 32 22 2 -3 11 4 18 16 7 12 16 21 20 21 11 0 49 33 136 118
41 39 76 72 78 72 2 0 13 9 24 20 11 11 17 20 12 20 -4 0 4 10 18 23 14 12 44
44 65 71 22 28 49 60 60 72 11 12 42 55 70 95 27 41 53 76 57 77 5 2 6 8 2 13
-3 5 0 9 6 9 6 0 16 13 21 30 6 17 15 30 20 30 5 0 9 4 9 10 0 5 20 44 45 85
24 42 39 73 32 70 -6 -4 -4 0 6 8 9 8 17 22 17 31 0 9 5 16 11 16 5 0 7 5 4
10 -3 6 -1 10 4 10 6 0 11 7 11 15 0 8 9 30 19 49 11 19 17 37 14 40 -4 3 -1
6 5 6 7 0 12 5 12 11 0 6 14 43 31 82 17 39 32 75 34 81 1 6 10 29 20 51 10
22 18 44 16 49 -1 5 2 12 6 15 9 7 44 98 45 119 1 6 4 12 8 12 4 0 7 6 7 13 1
6 22 71 48 142 25 72 48 137 50 145 2 8 8 27 14 42 6 16 7 28 3 28 -4 0 -2 4
4 8 5 4 20 43 33 87 12 44 25 87 28 95 10 25 18 56 34 125 6 28 16 53 22 57 6
4 9 10 5 13 -4 4 0 28 7 53 8 26 16 58 19 72 3 14 14 67 25 117 12 51 23 108
25 125 3 18 5 33 6 33 3 0 20 109 25 160 2 17 4 30 5 30 2 0 6 31 15 125 4 41
9 91 11 110 3 29 11 173 17 305 0 17 -2 38 -5 46 -4 9 -3 33 2 53 4 20 5 36 1
36 -3 0 -6 33 -7 73 -1 69 -10 196 -20 282 -2 22 -5 57 -7 78 -1 20 -4 37 -7
37 -3 0 -6 10 -6 23 -1 22 -10 93 -18 132 -33 166 -68 315 -83 355 -4 8 -5 19
-4 24 1 4 -2 13 -7 20 -5 6 -15 34 -22 61 -7 28 -17 56 -23 63 -5 6 -6 12 -2
12 4 0 2 6 -4 13 -6 8 -8 17 -4 20 3 4 0 7 -7 7 -7 0 -11 3 -7 6 5 5 -3 28
-50 134 -36 82 -109 220 -116 220 -5 0 -6 4 -3 9 3 4 -3 19 -14 31 -11 13 -20
29 -20 37 0 7 -7 16 -15 19 -8 4 -15 12 -15 19 0 8 -6 20 -13 27 -7 7 -23 30
-36 51 -12 20 -27 37 -32 37 -5 0 -9 5 -9 11 0 36 -279 328 -410 429 -25 19
-51 41 -59 48 -13 12 -66 49 -110 77 -9 6 -18 12 -21 15 -5 5 -57 39 -115 76
-16 10 -33 17 -37 16 -5 -1 -8 2 -8 7 0 5 -15 14 -32 22 -18 7 -35 16 -38 20
-3 4 -12 9 -20 11 -8 2 -21 9 -28 16 -8 7 -28 16 -44 19 -16 3 -32 12 -35 19
-3 8 -9 12 -13 9 -5 -3 -11 -1 -15 5 -3 5 -15 10 -26 10 -10 0 -19 5 -19 12 0
6 -3 8 -6 5 -4 -3 -16 -1 -28 5 -11 7 -23 13 -26 13 -3 1 -16 6 -30 12 -14 6
-43 16 -65 24 -22 7 -44 16 -50 20 -5 3 -32 12 -60 19 -27 7 -54 17 -60 21 -5
5 -19 9 -31 9 -12 0 -37 7 -57 15 -19 8 -37 12 -40 9 -3 -3 -12 -2 -19 2 -16
10 -37 15 -60 15 -10 0 -18 3 -18 7 0 6 -30 11 -97 15 -13 1 -23 4 -23 7 0 3
-12 7 -27 8 -16 1 -53 7 -83 12 -30 5 -82 13 -115 16 -33 3 -73 8 -90 10 -16
1 -92 6 -169 9 -76 3 -141 6 -145 7 -3 0 -8 0 -11 -1 -3 -1 -72 -4 -155 -7
-173 -6 -250 -12 -385 -30 -25 -3 -56 -7 -70 -9 -77 -9 -118 -16 -145 -21 -16
-4 -41 -8 -55 -9 -14 -2 -25 -4 -25 -5 0 -2 -13 -4 -30 -5 -16 -1 -43 -6 -60
-9 -16 -4 -39 -9 -50 -11 -40 -8 -82 -17 -165 -35 -123 -27 -147 -29 -148 -16
0 6 -4 40 -7 76 -4 36 -8 85 -10 110 -2 25 -4 45 -5 45 -5 0 -29 323 -34 462
-1 40 -5 75 -8 78 -3 3 -2 23 2 45 4 22 3 43 -2 48 -6 6 -6 12 1 16 6 4 7 16
3 29 -10 28 -9 398 1 414 4 6 3 14 -3 18 -6 4 -7 12 -3 18 4 6 8 63 9 127 1
63 3 115 3 115 1 0 4 36 6 80 5 98 13 199 20 285 3 36 8 90 10 120 3 30 7 75
10 100 3 25 7 65 10 90 3 25 7 59 9 75 3 17 7 61 11 99 4 38 9 79 11 90 3 12
7 46 10 76 4 30 10 65 15 78 6 17 6 21 -3 16 -7 -4 -8 -3 -4 5 7 11 9 19 20
91 3 19 7 44 10 55 4 22 20 124 21 140 1 6 4 19 8 30 3 11 9 38 12 60 11 62
14 77 24 119 5 22 8 43 5 47 -2 4 1 11 7 14 5 4 8 13 5 20 -2 7 -2 16 2 19 6
7 7 10 17 61 4 25 11 53 20 88 2 4 3 8 4 10 2 1 4 13 7 26 2 13 12 49 20 79 9
30 18 62 19 71 2 9 4 16 5 16 1 0 3 8 6 18 6 27 10 39 24 87 7 25 14 50 16 55
1 6 10 30 19 55 9 25 19 56 21 70 3 13 10 30 15 36 5 7 9 16 8 20 -1 5 1 18 5
29 30 77 34 93 29 99 -4 3 -1 6 5 6 7 0 12 9 12 19 0 11 5 23 10 26 6 4 10 12
8 18 -1 7 6 30 16 52 10 22 19 45 20 50 2 6 8 21 13 35 6 14 29 72 52 130 23
58 56 135 74 172 18 36 28 64 22 60 -5 -3 -2 4 8 15 9 11 17 24 17 29 0 6 12
35 27 65 15 30 27 56 28 59 2 10 89 185 94 190 3 3 7 14 9 24 2 10 10 25 18
33 13 14 18 28 15 46 0 4 2 7 7 7 4 0 13 15 21 33 8 17 22 43 31 57 10 14 17
27 17 30 0 3 7 16 15 30 9 14 18 32 20 40 2 8 11 23 20 34 10 10 15 23 12 28
-3 4 0 8 5 8 6 0 11 6 11 13 0 7 11 29 25 50 14 20 22 37 18 37 -4 0 -3 4 2 8
13 9 85 130 85 143 0 5 5 9 10 9 6 0 10 5 10 10 0 11 81 144 129 215 16 22 30
45 32 50 7 19 183 280 191 283 5 2 8 10 8 18 0 8 4 14 8 14 4 0 16 15 27 33
10 17 27 41 37 51 10 11 18 26 18 33 0 7 3 13 8 13 4 0 18 17 32 38 14 20 35
48 47 61 11 13 27 35 35 50 7 14 20 33 28 41 8 9 26 31 40 49 52 70 146 188
173 216 15 17 27 36 27 43 0 7 5 10 10 7 6 -3 10 -1 10 4 0 11 7 20 74 90 21
23 36 41 33 41 -3 0 11 18 31 39 20 22 78 83 127 137 148 159 352 359 479 466
22 18 54 47 72 63 18 17 45 39 60 50 15 11 32 25 38 30 6 6 43 35 81 64 39 30
76 62 83 70 7 9 15 14 18 13 3 -2 19 8 35 22 16 14 31 26 34 26 6 0 23 13 54
40 9 9 34 26 54 39 21 13 43 28 50 35 6 6 28 23 47 36 19 13 40 28 45 32 6 5
55 43 110 85 55 42 102 80 103 85 2 4 10 8 18 8 8 0 14 4 14 9 0 4 26 29 58
54 31 25 71 57 87 72 49 42 145 128 180 160 91 84 108 96 103 73 -1 -7 1 -33
5 -58 10 -63 18 -119 22 -160 2 -19 4 -35 5 -35 3 0 9 -39 15 -90 3 -27 7 -61
10 -75 3 -14 8 -45 10 -70 3 -25 8 -58 11 -75 10 -61 24 -166 29 -225 2 -19 4
-35 5 -35 2 0 8 -31 15 -85 4 -25 9 -56 11 -70 2 -14 6 -38 9 -55 12 -84 17
-122 19 -140 1 -12 5 -25 8 -30 3 -6 4 -20 3 -32 -1 -13 1 -23 4 -23 3 0 7
-12 7 -27 2 -42 14 -136 20 -153 3 -8 8 -35 10 -60 3 -25 7 -56 10 -70 2 -14
7 -41 9 -60 3 -19 10 -60 15 -90 5 -30 12 -71 14 -90 3 -19 8 -48 11 -65 4
-16 8 -46 10 -65 7 -57 15 -113 22 -140 3 -14 7 -34 8 -45 1 -11 7 -51 13 -90
7 -38 14 -83 16 -100 2 -16 5 -30 6 -30 1 0 4 -11 5 -25 2 -14 6 -36 8 -50 3
-14 7 -45 11 -70 4 -25 10 -58 13 -75 4 -16 7 -37 8 -45 1 -8 4 -28 8 -45 3
-16 9 -48 12 -70 3 -23 8 -52 11 -65 3 -14 7 -38 10 -55 3 -16 8 -41 10 -55 3
-14 7 -36 9 -50 2 -14 4 -25 5 -25 1 0 3 -13 5 -30 1 -16 3 -30 5 -30 1 0 3
-9 5 -20 11 -76 22 -136 51 -278 31 -151 30 -146 60 -304 2 -13 5 -25 5 -28 0
-2 7 -33 16 -67 8 -35 16 -74 18 -88 2 -14 4 -25 5 -25 3 0 19 -69 26 -115 3
-19 8 -38 11 -42 2 -5 6 -17 9 -28 2 -11 6 -30 9 -42 3 -13 7 -35 10 -50 3
-15 9 -38 14 -51 6 -14 7 -28 4 -31 -4 -3 -2 -6 3 -6 6 0 11 -10 11 -22 1 -13
6 -39 11 -58 22 -78 44 -156 47 -170 2 -8 8 -26 13 -40 5 -14 10 -29 11 -35 0
-5 8 -35 17 -65 9 -30 17 -60 18 -67 1 -7 5 -16 9 -19 4 -4 7 -17 7 -29 0 -12
3 -25 8 -29 4 -4 7 -11 7 -14 0 -9 25 -92 35 -117 5 -11 23 -65 41 -120 17
-55 35 -109 40 -120 5 -11 26 -69 48 -130 21 -60 49 -137 62 -170 13 -33 24
-65 25 -71 1 -6 9 -27 17 -45 16 -33 66 -164 71 -184 2 -5 10 -26 19 -45 36
-82 87 -215 87 -227 0 -7 5 -13 10 -13 6 0 10 -8 10 -18 0 -10 3 -22 8 -26 4
-4 7 -11 8 -14 0 -4 7 -20 14 -37 7 -16 14 -32 15 -35 1 -3 6 -16 12 -30 6
-14 21 -50 33 -80 12 -30 32 -78 46 -108 13 -29 24 -55 24 -57 0 -2 14 -34 30
-70 17 -36 30 -68 30 -70 0 -3 14 -35 31 -72 17 -38 37 -81 44 -98 25 -59 67
-151 87 -193 12 -23 21 -49 21 -57 0 -8 4 -15 9 -15 4 0 8 -5 8 -10 0 -6 16
-43 36 -83 19 -39 35 -72 35 -72 0 0 2 -10 5 -22 4 -13 11 -23 16 -23 5 0 7
-4 3 -9 -3 -5 -1 -12 5 -16 6 -4 8 -11 5 -16 -4 -5 -1 -9 4 -9 6 0 11 -9 11
-20 0 -11 5 -20 10 -20 6 0 10 -7 10 -15 0 -8 4 -23 10 -33 19 -33 152 -317
154 -328 1 -7 8 -19 15 -27 7 -9 14 -22 15 -29 2 -7 25 -58 51 -113 27 -55 50
-102 51 -105 9 -29 30 -70 36 -70 4 0 8 -5 8 -12 0 -7 27 -67 60 -135 33 -67
60 -127 60 -132 0 -6 5 -11 10 -11 6 0 10 -8 10 -18 0 -10 6 -24 13 -30 6 -7
12 -16 12 -20 0 -4 31 -69 68 -144 37 -75 67 -141 67 -147 0 -5 3 -11 8 -13 8
-3 177 -343 171 -343 -2 0 5 -13 17 -30 11 -16 27 -46 34 -65 8 -19 16 -37 19
-40 10 -8 41 -80 38 -87 -1 -4 -29 -6 -62 -4 -125 6 -455 0 -455 -9 0 -3 -15
-6 -32 -6 -18 -1 -46 -4 -63 -8 -16 -3 -43 -8 -60 -11 -16 -4 -53 -12 -82 -19
-28 -8 -54 -11 -57 -8 -3 3 -6 0 -6 -6 0 -7 -3 -11 -7 -10 -15 3 -83 -14 -83
-21 0 -4 -9 -7 -21 -8 -22 -2 -225 -89 -249 -108 -8 -6 -27 -16 -42 -23 -16
-6 -28 -16 -28 -22 0 -5 -4 -9 -9 -8 -13 4 -141 -83 -141 -94 0 -5 -4 -7 -9
-3 -6 3 -15 -4 -21 -16 -7 -11 -14 -18 -17 -16 -3 3 -18 -8 -34 -24 -15 -16
-33 -29 -39 -29 -5 0 -10 -3 -10 -7 0 -5 -28 -38 -63 -74 -82 -87 -118 -129
-112 -129 3 0 -4 -10 -15 -22 -12 -13 -34 -43 -50 -68 -16 -25 -33 -49 -38
-55 -4 -5 -17 -26 -28 -45 -10 -19 -22 -37 -25 -40 -8 -7 -149 -296 -149 -307
0 -4 -14 -42 -31 -83 -17 -41 -32 -82 -34 -90 -2 -8 -13 -43 -24 -76 -12 -34
-22 -70 -24 -80 -2 -11 -6 -26 -9 -34 -9 -26 -31 -104 -33 -120 -2 -8 -5 -26
-8 -40 -15 -63 -25 -115 -32 -160 -3 -19 -8 -42 -10 -50 -4 -16 -16 -90 -20
-130 -2 -14 -4 -25 -5 -25 -2 0 -12 -110 -14 -152 0 -18 -3 -33 -6 -33 -8 0
-14 -184 -14 -430 0 -209 3 -281 20 -465 3 -38 7 -85 7 -102 1 -18 4 -33 7
-33 3 0 6 -18 7 -40 2 -22 5 -52 9 -68 3 -15 7 -36 8 -47 1 -11 6 -45 11 -75
4 -30 6 -55 4 -56 -2 0 2 -8 10 -17 7 -10 11 -17 8 -17 -3 0 -1 -17 4 -37 5
-21 12 -51 14 -66 2 -16 12 -56 20 -90 21 -78 20 -76 29 -112 4 -16 10 -37 13
-45 3 -8 7 -19 8 -25 2 -5 11 -37 20 -70 10 -33 17 -61 16 -63 -1 -1 5 -15 14
-32 8 -16 16 -37 18 -47 2 -10 11 -35 20 -57 9 -21 17 -45 17 -52 0 -8 5 -14
11 -14 5 0 8 -4 4 -10 -3 -5 -1 -17 4 -27 20 -35 71 -155 77 -179 3 -13 10
-24 15 -24 5 0 9 -5 9 -11 0 -6 14 -39 32 -73 17 -33 40 -78 50 -99 11 -22 37
-68 59 -103 21 -35 39 -67 39 -70 0 -3 6 -12 13 -19 30 -34 35 -43 30 -49 -4
-3 -1 -6 5 -6 7 0 12 -7 12 -15 0 -8 5 -15 10 -15 6 0 10 -7 10 -15 0 -8 5
-15 10 -15 6 0 10 -4 10 -10 0 -9 19 -36 48 -66 7 -8 11 -14 8 -14 -3 0 2 -8
12 -18 9 -10 26 -30 37 -46 11 -15 29 -38 40 -50 11 -13 40 -47 65 -77 86
-102 299 -308 380 -369 19 -14 41 -33 49 -42 9 -10 21 -18 28 -18 7 0 13 -4
13 -10 0 -5 17 -21 38 -35 53 -35 134 -93 155 -110 9 -8 20 -15 23 -15 2 0 10
-5 17 -10 7 -6 46 -31 87 -57 41 -25 86 -53 100 -62 14 -8 31 -16 37 -17 7 -1
19 -9 27 -17 8 -7 29 -20 48 -27 18 -8 35 -16 38 -20 3 -3 30 -16 60 -30 30
-14 56 -28 58 -32 2 -5 10 -8 17 -8 7 0 37 -12 67 -27 30 -16 60 -29 67 -31 6
-1 31 -11 54 -21 51 -23 78 -33 95 -37 8 -1 28 -9 45 -17 18 -9 46 -19 62 -23
17 -4 35 -10 40 -15 6 -4 22 -10 35 -13 14 -2 54 -14 90 -26 36 -12 74 -23 85
-25 11 -2 35 -8 53 -13 18 -6 36 -11 40 -12 4 0 16 -3 28 -6 11 -3 29 -7 40
-9 10 -2 19 -4 19 -5 0 -1 9 -3 20 -5 11 -2 32 -6 48 -9 75 -16 179 -34 232
-41 22 -3 49 -7 60 -9 24 -5 126 -16 209 -23 86 -8 548 -7 626 1 63 6 111 11
188 21 20 2 98 16 172 30 174 33 158 30 210 45 25 6 54 14 65 16 12 2 46 12
78 23 31 11 57 17 57 13 0 -3 5 -1 12 6 7 7 18 12 24 12 7 0 25 5 41 12 15 6
37 13 48 15 10 2 23 9 27 16 4 6 8 9 8 5 0 -13 309 126 321 144 3 5 8 8 11 6
6 -4 82 35 86 45 2 4 8 5 13 1 5 -3 9 0 9 5 0 6 4 11 10 11 5 0 34 16 64 35
30 19 59 35 64 35 6 0 13 7 16 16 3 8 10 13 15 10 4 -3 16 3 26 14 10 11 24
20 32 20 7 0 13 5 13 10 0 6 6 10 14 10 8 0 17 7 20 16 3 8 10 12 16 9 5 -3
10 -1 10 4 0 6 7 11 15 11 8 0 15 4 15 9 0 4 20 21 45 37 25 15 45 32 45 36 0
4 6 8 13 8 6 0 31 18 55 40 24 22 47 40 52 40 6 0 10 4 10 9 0 5 9 13 20 16
11 4 18 11 15 16 -4 5 -1 9 4 9 12 0 36 20 130 107 36 34 69 63 74 63 4 0 7 7
7 15 0 8 3 14 8 12 6 -2 222 208 222 217 0 2 21 26 48 54 26 27 63 69 82 92
19 23 44 52 55 64 11 12 29 35 40 50 11 16 32 42 48 58 15 16 27 33 27 38 0 6
4 10 8 10 5 0 17 16 28 35 10 19 21 35 25 35 3 0 28 33 55 72 27 40 54 79 61
86 7 7 13 17 13 22 0 5 6 15 13 22 20 20 152 242 149 251 -1 4 1 7 6 7 4 0 13
15 21 33 8 17 17 34 20 37 6 4 31 55 36 70 1 3 12 28 25 55 61 133 78 175 73
175 -3 0 0 6 6 13 6 8 8 17 4 20 -3 4 -1 7 5 7 7 0 11 3 10 8 0 4 1 14 4 22 3
8 10 31 17 50 12 35 17 53 25 90 3 11 7 24 10 28 3 5 7 19 10 33 3 13 10 44
17 69 13 53 17 75 25 115 2 17 7 41 9 55 3 14 7 36 10 50 50 245 51 822 1
1140 -3 19 -10 71 -17 115 -14 98 -16 112 -23 150 -22 114 -30 161 -28 168 1
4 -2 7 -6 7 -5 0 -9 12 -9 28 -1 15 -9 54 -17 87 -9 33 -19 71 -21 85 -3 14
-9 36 -14 50 -17 49 -46 145 -46 155 0 6 -3 15 -7 20 -4 6 -16 40 -28 75 -13
36 -28 79 -35 95 -13 31 -27 66 -30 75 -1 3 -10 23 -20 45 -10 22 -17 43 -17
48 1 4 -3 7 -9 7 -5 0 -7 5 -4 10 3 6 1 10 -4 10 -6 0 -10 3 -9 8 4 12 -45
112 -54 112 -5 0 -6 4 -3 10 3 5 1 10 -6 10 -7 0 -10 3 -6 6 3 3 -8 28 -24 55
-16 28 -29 54 -29 59 0 6 -4 10 -9 10 -5 0 -14 13 -20 30 -5 16 -14 30 -20 30
-5 0 -13 10 -17 22 -7 22 -38 70 -61 96 -7 7 -13 21 -13 29 0 9 -3 13 -7 10
-6 -6 -19 12 -40 53 -4 8 -17 24 -30 36 -13 12 -23 24 -23 28 0 3 -9 16 -19
28 -58 68 -101 123 -101 130 0 3 -9 10 -20 13 -11 3 -20 11 -20 17 0 6 -17 27
-37 48 -21 21 -69 70 -106 109 -37 39 -70 71 -72 71 -2 0 -19 15 -37 32 -19
18 -58 53 -88 78 -29 25 -64 55 -77 68 -13 12 -31 22 -39 22 -8 0 -12 5 -9 10
3 6 1 10 -4 10 -10 0 -36 19 -66 48 -8 6 -16 12 -20 12 -8 0 -69 43 -73 53 -2
4 -9 7 -17 7 -7 0 -18 7 -25 15 -7 8 -16 12 -21 9 -5 -3 -9 0 -9 5 0 10 -40
35 -102 63 -16 7 -28 16 -28 20 0 4 -4 8 -10 8 -5 0 -46 18 -91 40 -45 22 -88
40 -96 40 -7 0 -13 5 -13 12 0 6 -3 9 -6 6 -3 -3 -33 5 -67 19 -34 13 -73 27
-86 29 -13 3 -32 9 -43 15 -10 5 -18 7 -18 5 0 -3 -12 -1 -27 5 -16 6 -37 12
-48 14 -11 2 -31 6 -45 10 -31 7 -73 14 -125 21 -44 5 -80 12 -80 14 0 4 -159
12 -265 12 -120 1 -288 -7 -340 -16 -14 -3 -45 -7 -70 -10 -25 -3 -55 -8 -66
-10 -12 -2 -37 -7 -55 -10 -49 -8 -90 -17 -146 -30 -81 -19 -103 -23 -103 -17
0 3 -4 1 -8 -4 -6 -9 -83 -33 -156 -50 -11 -3 -22 -8 -25 -12 -3 -5 -13 -9
-21 -10 -26 -3 -54 -11 -85 -24 -16 -6 -34 -13 -40 -15 -5 -1 -35 -12 -65 -24
-30 -12 -63 -23 -72 -23 -10 -1 -18 -4 -18 -8 0 -4 -24 -15 -52 -24 -29 -10
-57 -21 -63 -26 -5 -5 -16 -9 -25 -9 -8 -1 -33 -9 -55 -20 -22 -10 -43 -16
-47 -14 -5 3 -8 0 -8 -7 0 -7 -3 -9 -7 -6 -3 4 -11 2 -18 -3 -6 -5 -20 -11
-31 -13 -10 -2 -32 -9 -47 -15 -16 -7 -34 -12 -42 -12 -7 0 -38 51 -70 113
-31 61 -62 115 -69 119 -6 4 -7 8 -2 8 4 0 1 11 -8 25 -9 13 -16 31 -16 40 0
9 -7 18 -15 21 -8 4 -15 14 -15 24 0 10 -6 25 -13 32 -7 7 -19 29 -27 48 -7
19 -21 46 -30 60 -9 14 -22 40 -29 58 -8 17 -17 32 -22 32 -5 0 -8 4 -7 8 3
10 -203 424 -215 433 -5 3 -8 8 -7 10 3 7 -24 64 -33 70 -5 3 -8 8 -6 10 1 2
-28 67 -66 144 -38 77 -70 144 -70 148 0 4 -7 12 -15 17 -8 5 -11 10 -6 10 5
0 3 7 -4 15 -7 8 -9 15 -4 15 5 0 5 4 -1 8 -8 6 -47 77 -50 92 0 3 -7 16 -15
30 -8 14 -15 27 -15 30 -2 15 -40 86 -49 92 -6 4 -8 8 -4 8 4 0 -6 26 -21 58
-72 146 -121 251 -121 261 0 6 -4 11 -10 11 -5 0 -10 6 -10 13 0 7 -11 35 -24
63 -28 56 -104 220 -131 279 -10 22 -33 70 -51 108 -18 37 -31 67 -28 67 2 0
-3 12 -13 27 -9 14 -18 31 -19 37 -1 6 -22 52 -45 101 -24 50 -43 92 -44 95 0
3 -10 25 -21 50 -51 108 -58 125 -56 133 1 4 -2 7 -8 7 -6 0 -9 3 -8 8 2 4 -9
32 -23 62 -54 116 -63 135 -64 140 -1 3 -10 23 -20 45 -10 22 -19 42 -20 45
-3 10 -23 55 -48 112 -14 31 -23 59 -19 62 3 3 0 6 -6 6 -6 0 -16 17 -23 38
-6 20 -14 42 -18 47 -3 6 -6 12 -7 15 0 3 -8 21 -17 40 -58 131 -149 347 -150
358 0 6 -4 12 -9 12 -4 0 -8 7 -8 15 0 8 -4 23 -10 33 -8 14 -39 84 -45 102
-1 3 -7 17 -12 31 -9 20 -104 262 -163 414 -4 11 -12 31 -18 45 -6 14 -16 43
-24 65 -7 22 -18 48 -24 59 -7 10 -10 25 -7 32 3 8 0 14 -7 14 -6 0 -9 3 -6 8
2 4 -3 23 -11 42 -9 19 -17 40 -17 45 -2 19 -28 90 -36 99 -5 5 -6 15 -3 22 3
8 0 14 -6 14 -6 0 -8 6 -5 14 3 8 0 17 -5 21 -6 3 -9 11 -6 16 4 5 1 9 -6 9
-7 0 -10 3 -6 6 3 4 0 22 -8 40 -8 19 -12 34 -10 34 2 0 -3 16 -11 35 -8 19
-14 37 -14 40 0 3 0 6 -1 8 0 1 -2 10 -5 20 -2 9 -6 25 -8 35 -3 9 -5 18 -6
20 -2 1 -3 5 -5 10 -1 4 -4 14 -7 22 -6 16 -38 135 -43 160 -2 8 -4 16 -5 18
-3 3 -6 12 -15 57 -4 22 -10 45 -14 50 -3 6 -6 15 -7 20 -1 6 -5 21 -8 35 -3
14 -8 39 -12 55 -3 17 -8 37 -11 45 -3 8 -8 24 -10 35 -2 11 -10 47 -18 80
-14 60 -21 93 -31 150 -3 17 -10 35 -15 41 -5 6 -7 13 -4 16 3 3 -1 34 -9 69
-8 35 -18 82 -21 104 -7 45 -13 70 -15 70 -2 0 -8 31 -15 80 -3 22 -9 57 -14
77 -5 20 -6 39 -4 42 3 2 1 11 -3 18 -5 7 -9 15 -9 18 -2 11 -19 116 -20 125
-1 6 -3 12 -4 15 -2 3 -4 19 -6 35 -2 17 -6 44 -9 60 -11 56 -18 100 -22 135
-2 19 -6 42 -8 50 -5 24 -16 90 -26 155 -16 100 -20 128 -26 175 -8 52 -12 75
-14 75 -2 0 -10 67 -13 113 -1 17 -4 32 -8 32 -3 0 -6 12 -7 28 -1 15 -3 41
-6 57 -2 17 -7 53 -11 80 -3 28 -8 61 -11 75 -4 14 -8 43 -9 65 -2 22 -5 42
-6 45 -3 7 -5 17 -13 80 -4 30 -9 66 -11 80 -3 14 -7 41 -9 60 -3 19 -9 55
-12 80 -4 25 -9 56 -10 70 -2 27 -11 97 -19 145 -11 74 -16 113 -20 160 -3 27
-8 61 -10 75 -3 14 -8 48 -11 75 -7 64 -12 110 -19 160 -3 22 -6 59 -7 82 -2
24 -5 43 -8 43 -3 0 -6 21 -7 48 -2 61 -11 156 -18 207 -7 50 -16 201 -19 325
-3 133 30 252 57 205 4 -8 8 -17 8 -20 0 -2 11 -17 24 -31 14 -15 25 -33 25
-39 0 -7 7 -15 15 -19 8 -3 15 -12 15 -20 0 -8 6 -19 13 -23 6 -4 32 -37 57
-73 61 -90 166 -232 184 -251 9 -9 16 -19 16 -22 0 -8 26 -41 62 -79 14 -15
23 -28 20 -28 -4 0 -2 -4 3 -8 6 -4 22 -23 35 -42 13 -19 36 -47 52 -62 15
-16 26 -28 23 -28 -5 0 2 -9 55 -70 12 -14 43 -51 68 -82 25 -32 49 -58 53
-58 5 0 9 -5 9 -11 0 -7 14 -25 30 -41 17 -15 30 -31 30 -33 0 -3 12 -18 28
-34 15 -16 52 -57 82 -91 30 -35 67 -76 82 -91 14 -16 24 -29 21 -29 -3 0 6
-9 20 -20 24 -19 24 -20 9 -55 -9 -19 -20 -35 -24 -35 -4 0 -8 -6 -8 -14 0 -8
-9 -31 -21 -50 -11 -20 -22 -41 -23 -48 -2 -7 -12 -33 -23 -58 -19 -43 -58
-154 -68 -196 -10 -40 -35 -150 -40 -176 -13 -73 -17 -96 -20 -128 -2 -19 -6
-64 -10 -100 -10 -100 -13 -248 -4 -261 5 -8 25 -3 70 20 67 33 84 38 73 19
-10 -16 -15 -97 -17 -258 -1 -169 11 -279 45 -405 6 -22 11 -44 13 -50 12 -56
24 -96 41 -140 4 -11 8 -22 8 -25 1 -3 6 -18 13 -35 13 -35 22 -62 24 -73 0
-4 5 -13 11 -19 6 -7 7 -13 2 -13 -5 0 -3 -4 4 -9 7 -4 14 -14 16 -22 1 -8 10
-31 19 -53 9 -21 17 -42 17 -47 0 -5 4 -9 10 -9 5 0 9 -3 8 -7 -1 -5 3 -18 10
-29 6 -12 9 -24 6 -26 -2 -3 2 -11 11 -18 8 -7 15 -19 15 -26 0 -8 4 -14 10
-14 5 0 7 -6 4 -14 -3 -8 -1 -17 5 -20 6 -4 24 -36 41 -71 17 -35 35 -67 40
-70 9 -6 47 15 83 45 10 8 20 14 23 12 2 -1 14 7 26 18 12 11 25 20 28 20 5 0
30 -84 46 -150 0 -3 3 -12 6 -20 9 -24 15 -45 15 -50 0 -3 6 -16 13 -30 8 -14
13 -28 12 -32 -1 -5 3 -8 8 -8 5 0 9 -3 8 -7 -2 -12 22 -67 33 -74 5 -3 12
-16 14 -29 2 -13 8 -26 13 -29 4 -3 23 -30 40 -59 18 -30 37 -59 43 -65 5 -7
29 -37 52 -67 64 -83 100 -122 243 -267 72 -73 136 -133 143 -133 6 0 11 -7
11 -15 0 -8 4 -15 9 -15 5 0 27 -17 49 -37 63 -61 91 -83 104 -83 6 0 9 -3 5
-6 -6 -7 77 -74 92 -74 5 0 12 17 16 38 4 20 14 45 22 54 9 10 16 27 17 39 0
12 6 24 11 26 6 1 42 -27 81 -65 38 -37 97 -89 129 -117 32 -27 67 -58 77 -67
10 -10 18 -16 18 -13 0 3 12 -6 28 -20 15 -14 43 -36 62 -47 19 -12 39 -28 43
-35 4 -7 12 -13 17 -13 9 0 108 -59 126 -75 6 -5 47 -28 90 -50 43 -22 82 -44
85 -48 3 -5 10 -8 15 -8 5 0 36 -13 69 -28 71 -34 153 -71 159 -71 2 0 20 -7
40 -15 20 -8 38 -15 41 -15 3 -1 25 -9 51 -20 25 -11 51 -20 57 -20 7 0 30 38
52 84 38 78 41 82 56 64 9 -10 21 -18 27 -18 6 0 12 -4 14 -8 8 -21 156 -109
258 -155 79 -36 270 -95 325 -101 17 -2 41 -6 55 -9 14 -3 46 -8 73 -11 26 -3
52 -8 59 -12 7 -5 8 -3 3 6 -6 9 -4 11 5 5 20 -12 64 -15 240 -16 160 0 242 5
259 15 10 7 2 84 -11 110 -9 17 -7 18 18 11 16 -4 37 -8 46 -10 9 -2 27 -9 40
-16 13 -7 24 -12 26 -11 1 1 3 2 5 1 1 0 9 -2 17 -4 8 -1 33 -7 55 -13 45 -12
90 -22 120 -26 11 -2 27 -6 35 -9 15 -5 71 -14 145 -22 35 -4 75 -8 223 -18
17 -1 32 1 32 5 0 4 11 3 25 -2 15 -6 26 -6 30 0 4 7 13 6 26 0 10 -6 19 -7
19 -3 0 4 28 8 63 9 68 1 225 15 307 29 19 3 51 8 70 11 45 6 51 13 55 65 2
24 4 46 5 49 1 3 3 19 3 35 l2 30 93 0 c52 0 96 -3 98 -7 2 -4 14 -5 27 -2 12
3 58 7 102 9 44 3 94 7 110 9 39 6 102 16 129 22 11 3 30 7 41 9 69 16 69 16
135 34 25 8 50 14 55 16 6 1 18 5 28 8 9 4 25 10 35 14 17 6 29 10 55 16 6 2
29 11 51 20 21 9 43 17 48 17 8 0 108 39 153 60 39 18 80 33 88 32 4 -1 7 3 7
9 0 5 4 8 8 5 5 -3 23 4 41 15 18 11 36 17 42 14 5 -4 9 -1 9 4 0 6 4 11 9 11
5 0 31 10 58 22 26 11 54 22 62 24 7 1 18 7 24 13 6 6 18 11 27 11 8 0 24 7
34 15 19 15 19 16 -19 55 -22 22 -37 40 -35 41 3 0 12 2 20 4 8 2 31 6 50 10
49 8 332 75 350 82 8 3 24 8 35 10 37 8 50 11 53 13 1 2 5 3 10 4 74 20 262
79 337 106 28 11 75 27 105 37 30 10 58 23 62 28 4 6 8 7 8 2 0 -4 14 0 31 8
16 9 29 20 27 24 -3 9 -68 88 -106 130 l-23 25 53 27 c29 15 56 26 59 25 3 0
13 7 23 17 10 9 22 15 27 12 5 -4 9 -3 9 2 0 4 32 26 70 47 39 22 70 43 70 48
0 4 7 8 15 8 9 0 18 7 21 15 4 8 10 13 14 10 5 -3 12 -1 15 5 4 6 23 22 43 35
21 13 49 34 64 47 14 13 36 30 48 38 12 8 33 25 46 38 14 12 30 22 35 22 6 0
7 5 4 10 -3 6 -2 10 4 10 19 0 97 88 112 128 32 80 4 127 -80 138 -13 2 -31 6
-40 9 -19 8 -142 16 -258 19 -46 0 -83 5 -83 9 0 4 -9 3 -19 -3 -11 -5 -22 -6
-25 -1 -3 4 -24 5 -46 1 -22 -4 -40 -4 -40 -1 0 9 -43 7 -58 -3 -7 -4 -12 -3
-12 2 0 10 -73 7 -91 -4 -7 -4 -9 -3 -6 3 5 7 -4 8 -28 3 -19 -4 -36 -5 -39
-3 -7 8 -112 7 -124 -1 -6 -3 -13 -2 -17 4 -4 6 -11 7 -18 3 -15 -9 -55 -10
-70 -1 -6 4 -17 2 -24 -4 -9 -7 -13 -7 -13 1 0 13 -22 10 -32 -4 -5 -6 -8 -5
-8 3 0 6 -7 12 -15 12 -20 0 -20 1 15 70 l30 60 -22 1 c-13 0 -34 2 -48 4 -14
2 -55 5 -92 6 -38 2 -68 6 -68 9 0 3 -17 6 -38 6 -50 2 -116 11 -182 24 -50
10 -71 14 -135 25 -11 2 -40 8 -65 14 -25 7 -54 14 -65 16 -11 3 -31 8 -45 11
-14 3 -36 8 -50 11 -14 3 -31 11 -39 17 -12 8 -13 8 -7 -2 7 -11 4 -11 -12 -1
-20 13 -20 13 6 29 15 9 46 24 70 35 28 12 42 24 40 34 -2 9 -11 15 -21 15 -9
-1 -17 3 -17 9 0 6 -3 8 -6 4 -3 -3 -27 1 -54 9 -26 8 -59 15 -74 16 -14 1
-26 6 -26 11 0 5 -6 7 -13 4 -7 -3 -24 1 -38 9 -13 7 -34 13 -46 14 -13 0 -23
5 -23 10 0 6 -3 9 -7 8 -11 -3 -103 32 -130 50 -13 8 -23 11 -23 7 0 -5 -8 -1
-17 7 -10 8 -33 20 -50 28 -18 7 -33 16 -33 21 0 5 -5 9 -12 9 -14 0 -151 81
-156 92 -2 5 -9 8 -15 8 -7 0 -27 13 -46 29 -19 16 -45 35 -58 42 -14 7 -39
26 -56 40 -18 15 -45 38 -61 51 l-28 24 52 1 c77 2 81 14 24 66 -27 25 -65 60
-85 78 -20 19 -58 52 -84 74 -26 22 -65 55 -86 73 -21 18 -41 34 -45 35 -5 1
-18 11 -29 22 -40 38 -75 65 -85 65 -6 0 -10 5 -10 10 0 6 -7 10 -16 10 -8 0
-12 5 -9 10 3 6 0 10 -8 10 -7 0 -23 9 -35 20 -12 11 -26 20 -32 20 -5 0 -10
4 -10 8 0 5 -12 15 -27 23 -16 8 -37 22 -48 32 -11 10 -36 27 -55 37 -19 10
-45 28 -57 40 -13 11 -23 18 -23 16 0 -5 -58 31 -95 59 -10 8 -28 15 -40 16
-37 1 47 25 103 28 12 0 22 7 22 14 0 7 -34 47 -75 90 -41 42 -75 75 -75 72 0
-2 -13 8 -29 23 -43 41 -111 95 -140 112 -14 8 -28 18 -31 21 -8 9 -94 63
-100 61 -3 0 -13 7 -22 15 -10 9 -18 12 -18 7 0 -5 -4 -4 -8 1 -13 18 -254
123 -296 129 -8 1 -19 5 -22 9 -4 4 -17 7 -29 7 -12 0 -25 3 -29 7 -3 4 -16 8
-28 10 -12 2 -28 9 -37 16 -12 10 -13 9 -6 -3 7 -12 6 -13 -6 -4 -8 6 -27 14
-43 18 -29 7 -28 20 2 22 28 3 62 16 62 24 0 4 6 8 13 7 68 -2 56 24 -41 90
-46 32 -98 66 -116 77 -17 10 -32 22 -34 27 -2 5 -12 9 -23 9 -10 0 -19 4 -19
8 0 11 -207 114 -285 142 -105 38 -153 52 -182 53 -7 0 -13 3 -13 7 0 4 -6 7
-12 7 -7 0 -31 3 -53 7 -56 10 -125 18 -157 19 -16 0 -28 4 -28 9 0 4 -10 4
-22 -1 -13 -5 -32 -5 -43 -2 -11 4 -53 7 -93 6 -40 -1 -75 2 -78 6 -2 4 16 28
42 54 25 26 43 53 40 60 -2 7 -24 17 -48 21 -49 9 -48 9 -68 17 -8 3 -32 9
-54 12 -21 3 -41 7 -45 9 -4 3 -28 7 -55 10 -26 3 -51 8 -54 10 -22 14 -313
26 -329 14 -7 -5 -14 -5 -18 2 -3 6 -10 8 -15 5 -5 -3 -42 -8 -82 -11 -40 -2
-89 -7 -108 -9 -19 -2 -51 -6 -70 -8 -20 -3 -49 -7 -65 -11 -47 -9 -108 -19
-127 -20 -10 0 -18 -3 -18 -6 0 -3 -8 -7 -17 -8 -10 -1 -25 -3 -33 -5 -8 -2
-33 -7 -55 -11 -22 -4 -47 -10 -55 -14 -49 -19 -51 -7 -7 30 26 22 47 46 47
54 0 7 -16 16 -35 20 -19 3 -38 10 -41 15 -3 5 -9 7 -14 4 -5 -3 -18 -2 -27 4
-10 5 -34 12 -53 15 -19 3 -46 9 -60 12 -33 8 -322 14 -334 7 -5 -3 -30 -8
-55 -10 -25 -2 -90 -15 -145 -29 -119 -29 -130 -32 -133 -34 -3 -3 -3 -3 -48
-15 -16 -4 -34 -10 -40 -14 -5 -3 -14 -6 -20 -7 -13 -3 -192 -73 -213 -84 -29
-14 -155 -71 -194 -87 -21 -8 -38 -20 -38 -26 0 -6 -3 -8 -6 -5 -3 3 -35 -9
-72 -27 l-67 -33 -55 54 c-142 139 -169 165 -220 221 -103 112 -140 154 -140
158 0 5 -39 51 -67 81 -7 7 -13 15 -13 18 0 3 -8 14 -17 24 -10 11 -27 31 -38
47 -11 15 -54 74 -95 130 -41 57 -82 113 -90 125 -15 22 -133 186 -147 205 -5
6 -19 27 -33 47 -14 21 -29 38 -33 38 -5 0 -6 4 -3 8 2 4 -8 23 -24 41 -16 18
-32 41 -35 51 -3 10 -12 21 -20 24 -8 3 -15 12 -15 20 0 9 -9 24 -21 34 -19
19 -19 21 -5 53 14 29 45 77 73 114 32 41 113 236 127 306 2 13 7 38 11 54 10
49 12 157 3 200 -9 38 -36 105 -47 115 -4 3 -12 17 -20 32 -8 15 -17 25 -21
23 -4 -2 -13 7 -20 20 -7 14 -17 25 -20 25 -4 0 -23 13 -41 30 -19 16 -45 35
-59 42 -14 7 -31 19 -38 26 -7 6 -19 12 -26 12 -6 0 -18 6 -24 13 -7 6 -16 12
-20 12 -4 1 -32 13 -62 27 -76 35 -140 59 -140 52 0 -4 -6 -2 -12 4 -26 21
-199 37 -248 22z"/>
</g>
</svg>
